<svg width="24" height="24" viewBox="0 0 24 24" fill="none" xmlns="http://www.w3.org/2000/svg">
<g filter="url(#filter0_d_530:9)">
<path fill-rule="evenodd" clip-rule="evenodd" d="M8.58821 8.7289C9.45576 7.86135 10.6324 7.37397 11.8593 7.37397C13.0862 7.37397 14.2628 7.86135 15.1304 8.7289C15.9979 9.59644 16.4853 10.7731 16.4853 12C16.4853 13.2269 15.9979 14.4035 15.1304 15.271C14.2628 16.1386 13.0862 16.626 11.8593 16.626C10.6324 16.626 9.45576 16.1386 8.58821 15.271C7.72067 14.4035 7.23329 13.2269 7.23329 12C7.23329 10.7731 7.72067 9.59644 8.58821 8.7289ZM10.7101 14.7744C11.0744 14.9253 11.4649 15.003 11.8593 15.003C12.6557 15.003 13.4196 14.6866 13.9827 14.1234C14.5459 13.5602 14.8623 12.7964 14.8623 12C14.8623 11.2035 14.5459 10.4397 13.9827 9.87653C13.4196 9.31336 12.6557 8.99697 11.8593 8.99697C11.4649 8.99697 11.0744 9.07465 10.7101 9.22556C10.3457 9.37648 10.0147 9.59767 9.73585 9.87653C9.45699 10.1554 9.23579 10.4864 9.08488 10.8508C8.93396 11.2151 8.85629 11.6056 8.85629 12C8.85629 12.3943 8.93396 12.7848 9.08488 13.1492C9.23579 13.5135 9.45699 13.8446 9.73585 14.1234C10.0147 14.4023 10.3457 14.6235 10.7101 14.7744Z" fill="#EEEEEE"/>
<path d="M17.511 8.06319C17.7161 7.85812 17.8313 7.57999 17.8313 7.28997C17.8313 6.99996 17.7161 6.72182 17.511 6.51675C17.3059 6.31168 17.0278 6.19647 16.7378 6.19647C16.4478 6.19647 16.1696 6.31168 15.9646 6.51675C15.7595 6.72182 15.6443 6.99996 15.6443 7.28997C15.6443 7.57999 15.7595 7.85812 15.9646 8.06319C16.1696 8.26826 16.4478 8.38347 16.7378 8.38347C17.0278 8.38347 17.3059 8.26826 17.511 8.06319Z" fill="#EEEEEE"/>
<path fill-rule="evenodd" clip-rule="evenodd" d="M8.14875 3.054C9.10875 3.01 9.41475 3 11.8593 3C14.3043 3 14.6098 3.0105 15.5693 3.054C16.5278 3.0975 17.1823 3.25 17.7548 3.4725C18.3552 3.69857 18.8992 4.05279 19.3488 4.5105C19.8065 4.96004 20.1608 5.50401 20.3868 6.1045C20.6093 6.677 20.7613 7.3315 20.8053 8.2895C20.8493 9.2495 20.8593 9.5555 20.8593 12C20.8593 14.4445 20.8488 14.7505 20.8053 15.7105C20.7618 16.6685 20.6093 17.323 20.3868 17.8955C20.1568 18.487 19.8488 18.9895 19.3488 19.4895C18.8992 19.9473 18.3552 20.3015 17.7548 20.5275C17.1823 20.75 16.5278 20.902 15.5698 20.946C14.6098 20.99 14.3038 21 11.8593 21C9.41475 21 9.10875 20.9895 8.14875 20.946C7.19075 20.9025 6.53625 20.75 5.96375 20.5275C5.37225 20.2975 4.86975 19.9895 4.36975 19.4895C3.91195 19.04 3.55772 18.496 3.33175 17.8955C3.10925 17.323 2.95725 16.6685 2.91325 15.7105C2.86925 14.7505 2.85925 14.445 2.85925 12C2.85925 9.555 2.86975 9.2495 2.91325 8.29C2.95675 7.3315 3.10925 6.677 3.33175 6.1045C3.55782 5.50406 3.91204 4.9601 4.36975 4.5105C4.81928 4.0527 5.36326 3.69847 5.96375 3.4725C6.53625 3.25 7.19075 3.098 8.14875 3.054ZM15.4963 4.674C14.5473 4.631 14.2623 4.6215 11.8593 4.6215C9.45625 4.6215 9.17125 4.631 8.22225 4.674C7.34475 4.714 6.86825 4.8605 6.55125 4.984C6.13125 5.147 5.83125 5.342 5.51625 5.657C5.20175 5.972 5.00625 6.272 4.84325 6.692C4.71975 7.009 4.57325 7.4855 4.53325 8.363C4.49025 9.312 4.48075 9.597 4.48075 12C4.48075 14.403 4.49025 14.688 4.53325 15.637C4.57325 16.5145 4.71975 16.991 4.84325 17.308C4.98744 17.6989 5.21741 18.0526 5.51625 18.343C5.80663 18.6419 6.1603 18.8718 6.55125 19.016C6.86825 19.1395 7.34475 19.286 8.22225 19.326C9.17125 19.369 9.45575 19.3785 11.8593 19.3785C14.2628 19.3785 14.5473 19.369 15.4963 19.326C16.3738 19.286 16.8503 19.1395 17.1673 19.016C17.5873 18.853 17.8873 18.658 18.2023 18.343C18.5011 18.0526 18.7311 17.699 18.8753 17.308C18.9988 16.991 19.1453 16.5145 19.1853 15.637C19.2283 14.688 19.2378 14.403 19.2378 12C19.2378 9.597 19.2283 9.312 19.1853 8.363C19.1453 7.4855 18.9988 7.009 18.8753 6.692C18.7123 6.272 18.5173 5.972 18.2023 5.657C17.8873 5.3425 17.5873 5.147 17.1673 4.984C16.8503 4.8605 16.3738 4.714 15.4963 4.674Z" fill="#EEEEEE"/>
</g>
<defs>
<filter id="filter0_d_530:9" x="1.85925" y="2" width="22" height="22" filterUnits="userSpaceOnUse" color-interpolation-filters="sRGB">
<feFlood flood-opacity="0" result="BackgroundImageFix"/>
<feColorMatrix in="SourceAlpha" type="matrix" values="0 0 0 0 0 0 0 0 0 0 0 0 0 0 0 0 0 0 127 0" result="hardAlpha"/>
<feOffset dx="1" dy="1"/>
<feGaussianBlur stdDeviation="1"/>
<feColorMatrix type="matrix" values="0 0 0 0 0.283333 0 0 0 0 0.828 0 0 0 0 1 0 0 0 0.25 0"/>
<feBlend mode="overlay" in2="BackgroundImageFix" result="effect1_dropShadow_530:9"/>
<feBlend mode="normal" in="SourceGraphic" in2="effect1_dropShadow_530:9" result="shape"/>
</filter>
</defs>
</svg>
